#!OML:ASF E:\emotionWalksFemale\Project 1\Capture day 1\Session 1\Female1.ASF
:FULLY-SPECIFIED
:DEGREES
1514
root 9.11827 15.2752 7.68691 -3.53245 6.68707 -364.098
lowerback 10.8998 -0.384807 1.59145
upperback -4.97261 -0.165966 0.922441
thorax -11.5396 -0.155056 0.13859
lowerneck -4.88501 -6.15786 -9.74274
upperneck 9.52015 -8.47621 9.65654
head 4.47044 -4.07133 4.06652
rclavicle -6.33626e-015 2.44505e-014
rhumerus -51.0471 1.49061 -73.6436
rradius 25.6394
rwrist 38.5407
rhand -8.7826 -51.4594
rfingers 7.12502
rthumb 17.1557 -800.722
lclavicle -6.33626e-015 2.44505e-014
lhumerus -47.7189 -3.8074 85.8221
lradius 66.7981
lwrist -2.25024
lhand -13.3295 -35.1506
lfingers 7.12502
lthumb 12.7756 -5.56149
rfemur -12.0165 6.3325 32.1389
rtibia 29.1584
rfoot -11.2443 -21.4582
rtoes 4.20902
lfemur -16.7387 1.96131 -14.9954
ltibia 75.8439
lfoot 0.604225 -1.6946
ltoes -5.36292
1515
root 9.11162 15.2462 7.84803 -3.56783 6.52591 -364.402
lowerback 10.9655 -0.267775 1.77391
upperback -4.9297 0.0311839 1.01336
thorax -11.5295 -0.0704736 0.0936702
lowerneck -5.12552 -6.28226 -9.98983
upperneck 9.78162 -8.6442 9.85306
head 4.62681 -4.14462 4.14619
rclavicle 9.14409e-015 8.34896e-015
rhumerus -49.7618 1.21176 -73.5051
rradius 25.992
rwrist 38.429
rhand -9.2875 -51.7471
rfingers 7.12502
rthumb 16.6697 -801.051
lclavicle 9.14409e-015 8.34896e-015
lhumerus -47.8806 -1.99565 85.3501
lradius 64.4474
lwrist -2.40747
lhand -13.5619 -35.0151
lfingers 7.12502
lthumb 12.5515 -5.41207
rfemur -11.7836 6.40477 32.7357
rtibia 30.0532
rfoot -12.0065 -21.6383
rtoes 4.54608
lfemur -18.6362 1.97155 -14.8414
ltibia 76.331
lfoot -1.46844 -1.8796
ltoes -7.578
1516
root 9.10978 15.2239 8.0248 -3.61096 6.47222 -364.345
lowerback 10.8971 -0.14736 1.69165
upperback -4.89226 0.1715 0.954766
thorax -11.4437 0.000337864 0.046766
lowerneck -5.1555 -6.406 -10.0969
upperneck 9.9924 -8.81986 9.88696
head 4.72049 -4.2309 4.15802
rclavicle 1.73937e-015 -5.36719e-015
rhumerus -48.562 0.938803 -73.5105
rradius 26.428
rwrist 37.652
rhand -9.9351 -51.9021
rfingers 7.12502
rthumb 16.0461 -801.258
lclavicle 1.73937e-015 -5.36719e-015
lhumerus -48.1182 -0.326632 84.7418
lradius 61.8921
lwrist -2.77368
lhand -13.7847 -35.3753
lfingers 7.12502
lthumb 12.3367 -5.75928
rfemur -11.3284 6.52832 32.9177
rtibia 30.8088
rfoot -12.8609 -21.8806
rtoes 5.26348
lfemur -20.2192 1.7865 -15.2067
ltibia 76.5095
lfoot -3.45188 -1.79063
ltoes -10.8564
1517
root 9.11171 15.2045 8.21527 -3.80906 6.48471 -363.943
lowerback 10.7494 -0.0572547 1.34993
upperback -4.7822 0.211995 0.747239
thorax -11.229 0.0367437 0.00504587
lowerneck -5.07527 -6.49819 -10.0766
upperneck 10.1895 -8.96719 9.86936
head 4.78054 -4.30451 4.1388
rclavicle 3.13086e-015 6.95746e-015
rhumerus -47.4442 0.790204 -73.7798
rradius 27.0966
rwrist 36.197
rhand -10.2458 -52.1446
rfingers 7.12502
rthumb 15.7469 -801.524
lclavicle 3.13086e-015 6.95746e-015
lhumerus -48.4213 1.18433 83.9754
lradius 59.1838
lwrist -2.93425
lhand -14.3122 -35.7371
lfingers 7.12502
lthumb 11.828 -6.09115
rfemur -10.5736 6.52286 32.7323
rtibia 31.5428
rfoot -13.7132 -22.2143
rtoes 5.34166
lfemur -21.2986 1.39719 -16.0361
ltibia 76.3073
lfoot -5.51151 -1.13532
ltoes -12.3823
1518
root 9.10651 15.1591 8.3688 -3.85324 6.34031 -364.685
lowerback 10.8641 -0.00640728 2.05012
upperback -4.8048 0.4071 0.883072
thorax -11.3205 0.0838073 -0.281884
lowerneck -5.06539 -6.57735 -10.181
upperneck 10.3103 -9.09318 10.0137
head 4.84021 -4.36242 4.19036
rclavicle 7.90169e-015 2.38542e-015
rhumerus -46.3512 0.98011 -74.3406
rradius 28.2127
rwrist 33.7356
rhand -10.4595 -52.6659
rfingers 7.12502
rthumb 15.5411 -802.061
lclavicle 7.90169e-015 2.38542e-015
lhumerus -48.5696 2.76948 83.0481
lradius 56.3786
lwrist -3.07929
lhand -14.7262 -35.575
lfingers 7.12502
lthumb 11.4288 -5.9065
rfemur -10.2794 6.81159 33.8306
rtibia 32.0963
rfoot -14.1911 -22.7541
rtoes 5.18578
lfemur -23.1946 1.32492 -15.3962
ltibia 76.235
lfoot -7.24473 -0.764301
ltoes -11.6892
1519
root 9.11012 15.1365 8.53838 -3.62193 6.42822 -364.525
lowerback 10.6089 0.00461412 1.99253
upperback -4.85361 0.392609 0.749525
thorax -11.2211 0.0756948 -0.390591
lowerneck -5.12813 -6.61348 -10.2785
upperneck 10.4587 -9.16085 10.188
head 4.91579 -4.38752 4.25264
rclavicle 6.26172e-015 3.57812e-015
rhumerus -45.263 1.17993 -74.8784
rradius 29.474
rwrist 31.0974
rhand -10.2733 -53.1004
rfingers 7.12502
rthumb 15.7204 -802.482
lclavicle 6.26172e-015 3.57812e-015
lhumerus -48.7452 4.49267 81.8593
lradius 53.4392
lwrist -3.43838
lhand -15.099 -35.517
lfingers 7.12502
lthumb 11.0692 -5.82893
rfemur -9.93976 6.77002 33.8292
rtibia 32.4476
rfoot -14.9262 -23.0698
rtoes 4.90048
lfemur -24.8636 0.845768 -15.9492
ltibia 75.6417
lfoot -8.87468 -0.0707659
ltoes -10.8971
1520
root 9.11015 15.1214 8.72139 -3.62455 6.40265 -364.673
lowerback 10.3039 -0.0019506 2.14388
upperback -4.77991 0.395344 0.740205
thorax -10.9545 0.0683655 -0.486044
lowerneck -5.31016 -6.61434 -10.3491
upperneck 10.6519 -9.17073 10.3212
head 5.01625 -4.38131 4.29874
rclavicle -8.24956e-015 -3.57812e-015
rhumerus -44.0933 1.39747 -75.3658
rradius 30.768
rwrist 28.647
rhand -9.9305 -53.4379
rfingers 7.12502
rthumb 16.0506 -802.793
lclavicle -8.24956e-015 -3.57812e-015
lhumerus -48.9859 6.13185 80.5407
lradius 50.4745
lwrist -3.86103
lhand -15.2978 -35.7627
lfingers 7.12502
lthumb 10.8775 -6.06443
rfemur -9.27002 6.93035 34.2175
rtibia 32.7103
rfoot -15.6874 -23.4618
rtoes 4.83668
lfemur -26.2433 0.506202 -16.0811
ltibia 74.791
lfoot -10.3603 0.579583
ltoes -10.9036
